<svg xmlns="http://www.w3.org/2000/svg" viewBox="0 0 1440 320">
    <path fill="#332377" fill-opacity="1" d="M0,288L24,282.7C48,277,96,267,144,245.3C192,224,240,192,288,160C336,128,384,96,432,112C480,128,528,192,576,224C624,256,672,256,720,245.3C768,235,816,213,864,224C912,235,960,277,1008,266.7C1056,256,1104,192,1152,170.7C1200,149,1248,171,1296,181.3C1344,192,1392,192,1416,192L1440,192L1440,320L1416,320C1392,320,1344,320,1296,320C1248,320,1200,320,1152,320C1104,320,1056,320,1008,320C960,320,912,320,864,320C816,320,768,320,720,320C672,320,624,320,576,320C528,320,480,320,432,320C384,320,336,320,288,320C240,320,192,320,144,320C96,320,48,320,24,320L0,320Z">
    </path>
</svg>
